<mxfile host="app.diagrams.net" modified="2021-10-27T06:33:03.624Z" agent="5.0 (Windows)" etag="uUEy8ginHAjLcUhKaN9_" version="15.5.9" type="github">
  <diagram name="Page-1" id="58cdce13-f638-feb5-8d6f-7d28b1aa9fa0">
    <mxGraphModel dx="723" dy="390" grid="1" gridSize="10" guides="1" tooltips="1" connect="1" arrows="1" fold="1" page="1" pageScale="1" pageWidth="1100" pageHeight="850" background="none" math="0" shadow="0">
      <root>
        <mxCell id="0" />
        <mxCell id="1" parent="0" />
        <mxCell id="382b91b5511bd0f7-1" value="" style="ellipse;html=1;shape=startState;fillColor=#000000;strokeColor=#ff0000;rounded=1;shadow=0;comic=0;labelBackgroundColor=none;fontFamily=Verdana;fontSize=12;fontColor=#000000;align=center;direction=south;" parent="1" vertex="1">
          <mxGeometry x="150" y="395" width="30" height="30" as="geometry" />
        </mxCell>
        <mxCell id="2a3bc250acf0617d-9" style="edgeStyle=orthogonalEdgeStyle;html=1;labelBackgroundColor=none;endArrow=open;endSize=8;strokeColor=#ff0000;fontFamily=Verdana;fontSize=12;align=left;" parent="1" source="382b91b5511bd0f7-1" edge="1">
          <mxGeometry relative="1" as="geometry">
            <mxPoint x="260" y="410" as="targetPoint" />
          </mxGeometry>
        </mxCell>
        <mxCell id="pOz0Ra9kWPePMZy7CQo1-2" value="idle" style="ellipse;whiteSpace=wrap;html=1;aspect=fixed;" vertex="1" parent="1">
          <mxGeometry x="260" y="370" width="80" height="80" as="geometry" />
        </mxCell>
        <mxCell id="pOz0Ra9kWPePMZy7CQo1-4" value="" style="ellipse;whiteSpace=wrap;html=1;aspect=fixed;" vertex="1" parent="1">
          <mxGeometry x="440" y="270" width="80" height="80" as="geometry" />
        </mxCell>
        <mxCell id="pOz0Ra9kWPePMZy7CQo1-5" value="" style="ellipse;whiteSpace=wrap;html=1;aspect=fixed;" vertex="1" parent="1">
          <mxGeometry x="440" y="480" width="80" height="80" as="geometry" />
        </mxCell>
        <mxCell id="pOz0Ra9kWPePMZy7CQo1-6" value="" style="ellipse;whiteSpace=wrap;html=1;aspect=fixed;" vertex="1" parent="1">
          <mxGeometry x="660" y="480" width="80" height="80" as="geometry" />
        </mxCell>
        <mxCell id="pOz0Ra9kWPePMZy7CQo1-7" value="" style="ellipse;whiteSpace=wrap;html=1;aspect=fixed;" vertex="1" parent="1">
          <mxGeometry x="660" y="260" width="80" height="80" as="geometry" />
        </mxCell>
        <mxCell id="pOz0Ra9kWPePMZy7CQo1-8" value="Go up" style="ellipse;whiteSpace=wrap;html=1;aspect=fixed;" vertex="1" parent="1">
          <mxGeometry x="445" y="275" width="70" height="70" as="geometry" />
        </mxCell>
        <mxCell id="pOz0Ra9kWPePMZy7CQo1-9" value="Top" style="ellipse;whiteSpace=wrap;html=1;aspect=fixed;" vertex="1" parent="1">
          <mxGeometry x="665" y="265" width="70" height="70" as="geometry" />
        </mxCell>
        <mxCell id="pOz0Ra9kWPePMZy7CQo1-10" value="Go down" style="ellipse;whiteSpace=wrap;html=1;aspect=fixed;" vertex="1" parent="1">
          <mxGeometry x="445" y="485" width="70" height="70" as="geometry" />
        </mxCell>
        <mxCell id="pOz0Ra9kWPePMZy7CQo1-11" value="Bottom" style="ellipse;whiteSpace=wrap;html=1;aspect=fixed;" vertex="1" parent="1">
          <mxGeometry x="665" y="485" width="70" height="70" as="geometry" />
        </mxCell>
        <mxCell id="pOz0Ra9kWPePMZy7CQo1-12" value="" style="endArrow=classic;html=1;rounded=0;exitX=1;exitY=0;exitDx=0;exitDy=0;entryX=-0.017;entryY=0.373;entryDx=0;entryDy=0;entryPerimeter=0;" edge="1" parent="1" target="pOz0Ra9kWPePMZy7CQo1-4">
          <mxGeometry width="50" height="50" relative="1" as="geometry">
            <mxPoint x="320.2842712474619" y="345.99572875253807" as="sourcePoint" />
            <mxPoint x="431" y="291.28" as="targetPoint" />
          </mxGeometry>
        </mxCell>
        <mxCell id="pOz0Ra9kWPePMZy7CQo1-13" value="" style="endArrow=classic;html=1;rounded=0;exitX=0.75;exitY=0.988;exitDx=0;exitDy=0;exitPerimeter=0;" edge="1" parent="1" source="pOz0Ra9kWPePMZy7CQo1-2">
          <mxGeometry width="50" height="50" relative="1" as="geometry">
            <mxPoint x="320.00427124746193" y="444.99572875253807" as="sourcePoint" />
            <mxPoint x="440" y="480" as="targetPoint" />
          </mxGeometry>
        </mxCell>
        <mxCell id="pOz0Ra9kWPePMZy7CQo1-14" value="" style="endArrow=classic;html=1;rounded=0;exitX=1;exitY=0.5;exitDx=0;exitDy=0;entryX=-0.018;entryY=0.673;entryDx=0;entryDy=0;entryPerimeter=0;" edge="1" parent="1" source="pOz0Ra9kWPePMZy7CQo1-4">
          <mxGeometry width="50" height="50" relative="1" as="geometry">
            <mxPoint x="520.0042712474619" y="300.99572875253807" as="sourcePoint" />
            <mxPoint x="658.5600000000002" y="309.84000000000003" as="targetPoint" />
          </mxGeometry>
        </mxCell>
        <mxCell id="pOz0Ra9kWPePMZy7CQo1-15" value="" style="endArrow=classic;html=1;rounded=0;exitX=1;exitY=0.5;exitDx=0;exitDy=0;entryX=0;entryY=0.763;entryDx=0;entryDy=0;entryPerimeter=0;" edge="1" parent="1" target="pOz0Ra9kWPePMZy7CQo1-6">
          <mxGeometry width="50" height="50" relative="1" as="geometry">
            <mxPoint x="515" y="540.16" as="sourcePoint" />
            <mxPoint x="653.5600000000002" y="540" as="targetPoint" />
          </mxGeometry>
        </mxCell>
        <mxCell id="pOz0Ra9kWPePMZy7CQo1-16" value="" style="endArrow=classic;html=1;rounded=0;entryX=1;entryY=0;entryDx=0;entryDy=0;" edge="1" parent="1" source="pOz0Ra9kWPePMZy7CQo1-7" target="pOz0Ra9kWPePMZy7CQo1-5">
          <mxGeometry width="50" height="50" relative="1" as="geometry">
            <mxPoint x="360" y="450" as="sourcePoint" />
            <mxPoint x="410" y="400" as="targetPoint" />
          </mxGeometry>
        </mxCell>
        <mxCell id="pOz0Ra9kWPePMZy7CQo1-17" value="" style="endArrow=classic;html=1;rounded=0;exitX=0;exitY=0;exitDx=0;exitDy=0;entryX=1;entryY=1;entryDx=0;entryDy=0;" edge="1" parent="1" source="pOz0Ra9kWPePMZy7CQo1-6" target="pOz0Ra9kWPePMZy7CQo1-4">
          <mxGeometry width="50" height="50" relative="1" as="geometry">
            <mxPoint x="360" y="450" as="sourcePoint" />
            <mxPoint x="410" y="400" as="targetPoint" />
          </mxGeometry>
        </mxCell>
        <mxCell id="pOz0Ra9kWPePMZy7CQo1-18" value="" style="endArrow=classic;html=1;rounded=0;exitX=0.268;exitY=0.048;exitDx=0;exitDy=0;exitPerimeter=0;" edge="1" parent="1" source="pOz0Ra9kWPePMZy7CQo1-5" target="pOz0Ra9kWPePMZy7CQo1-2">
          <mxGeometry width="50" height="50" relative="1" as="geometry">
            <mxPoint x="360" y="450" as="sourcePoint" />
            <mxPoint x="410" y="400" as="targetPoint" />
          </mxGeometry>
        </mxCell>
        <mxCell id="pOz0Ra9kWPePMZy7CQo1-19" value="" style="endArrow=classic;html=1;rounded=0;entryX=0.994;entryY=0.342;entryDx=0;entryDy=0;entryPerimeter=0;" edge="1" parent="1" source="pOz0Ra9kWPePMZy7CQo1-4" target="pOz0Ra9kWPePMZy7CQo1-2">
          <mxGeometry width="50" height="50" relative="1" as="geometry">
            <mxPoint x="360" y="450" as="sourcePoint" />
            <mxPoint x="370" y="365" as="targetPoint" />
            <Array as="points">
              <mxPoint x="430" y="310" />
            </Array>
          </mxGeometry>
        </mxCell>
        <mxCell id="pOz0Ra9kWPePMZy7CQo1-22" value="Bottom floor reached" style="text;html=1;strokeColor=none;fillColor=none;spacing=5;spacingTop=-20;whiteSpace=wrap;overflow=hidden;rounded=0;" vertex="1" parent="1">
          <mxGeometry x="530" y="531" width="190" height="20" as="geometry" />
        </mxCell>
        <mxCell id="pOz0Ra9kWPePMZy7CQo1-23" value="Top floor reached" style="text;html=1;strokeColor=none;fillColor=none;spacing=5;spacingTop=-20;whiteSpace=wrap;overflow=hidden;rounded=0;" vertex="1" parent="1">
          <mxGeometry x="530" y="296" width="190" height="20" as="geometry" />
        </mxCell>
        <mxCell id="pOz0Ra9kWPePMZy7CQo1-24" value="go up" style="text;html=1;strokeColor=none;fillColor=none;spacing=5;spacingTop=-20;whiteSpace=wrap;overflow=hidden;rounded=0;rotation=-30;" vertex="1" parent="1">
          <mxGeometry x="350" y="302" width="50" height="14" as="geometry" />
        </mxCell>
        <mxCell id="pOz0Ra9kWPePMZy7CQo1-25" value="go up" style="text;html=1;strokeColor=none;fillColor=none;spacing=5;spacingTop=-20;whiteSpace=wrap;overflow=hidden;rounded=0;rotation=0;" vertex="1" parent="1">
          <mxGeometry x="570" y="264" width="50" height="14" as="geometry" />
        </mxCell>
        <mxCell id="pOz0Ra9kWPePMZy7CQo1-26" value="go up" style="text;html=1;strokeColor=none;fillColor=none;spacing=5;spacingTop=-20;whiteSpace=wrap;overflow=hidden;rounded=0;rotation=45;" vertex="1" parent="1">
          <mxGeometry x="590" y="400" width="50" height="14" as="geometry" />
        </mxCell>
        <mxCell id="pOz0Ra9kWPePMZy7CQo1-27" value="go down" style="text;html=1;strokeColor=none;fillColor=none;spacing=5;spacingTop=-20;whiteSpace=wrap;overflow=hidden;rounded=0;rotation=30;" vertex="1" parent="1">
          <mxGeometry x="339.33" y="462.5" width="60" height="14" as="geometry" />
        </mxCell>
        <mxCell id="pOz0Ra9kWPePMZy7CQo1-30" value="halt" style="text;html=1;strokeColor=none;fillColor=none;spacing=5;spacingTop=-20;whiteSpace=wrap;overflow=hidden;rounded=0;rotation=-25;" vertex="1" parent="1">
          <mxGeometry x="381" y="346" width="50" height="14" as="geometry" />
        </mxCell>
        <mxCell id="pOz0Ra9kWPePMZy7CQo1-33" value="halt" style="text;html=1;strokeColor=none;fillColor=none;spacing=5;spacingTop=-20;whiteSpace=wrap;overflow=hidden;rounded=0;rotation=20;" vertex="1" parent="1">
          <mxGeometry x="381" y="418" width="50" height="14" as="geometry" />
        </mxCell>
      </root>
    </mxGraphModel>
  </diagram>
</mxfile>
